<svg xmlns="http://www.w3.org/2000/svg" xmlns:xlink="http://www.w3.org/1999/xlink" xml:space="preserve" width="96" height="173.284" viewBox="0 0 25.4 45.848"><defs><linearGradient id="c"><stop offset="0" style="stop-color:#b7b7b7;stop-opacity:1"/></linearGradient><linearGradient id="a"><stop offset="0" style="stop-color:#907520;stop-opacity:1"/></linearGradient><linearGradient id="b"><stop offset="0" style="stop-color:#000;stop-opacity:1"/></linearGradient><linearGradient xlink:href="#a" id="n" x1="5.07" x2="6.27" y1="39.565" y2="39.565" gradientTransform="rotate(90 30.448 69.05)" gradientUnits="userSpaceOnUse"/><linearGradient xlink:href="#a" id="o" x1="5.07" x2="6.27" y1="39.565" y2="39.565" gradientTransform="translate(11.092 .582)" gradientUnits="userSpaceOnUse"/><linearGradient xlink:href="#a" id="d" x1="135.493" x2="140.403" y1="68.213" y2="68.213" gradientTransform="translate(-3.41 -3.808)" gradientUnits="userSpaceOnUse"/><linearGradient xlink:href="#a" id="e" x1="135.493" x2="140.403" y1="68.213" y2="68.213" gradientTransform="translate(3.777 -3.808)" gradientUnits="userSpaceOnUse"/><linearGradient xlink:href="#a" id="f" x1="135.493" x2="140.403" y1="68.213" y2="68.213" gradientTransform="translate(3.777 -.112)" gradientUnits="userSpaceOnUse"/><linearGradient xlink:href="#a" id="g" x1="135.493" x2="140.403" y1="68.213" y2="68.213" gradientTransform="translate(-3.41 -.112)" gradientUnits="userSpaceOnUse"/><linearGradient xlink:href="#a" id="u" x1="31.611" x2="32.511" y1="38.838" y2="38.838" gradientTransform="translate(-68.71 -33.35)" gradientUnits="userSpaceOnUse"/><linearGradient xlink:href="#a" id="w" x1="31.611" x2="32.511" y1="40.838" y2="40.838" gradientTransform="translate(-68.71 -33.35)" gradientUnits="userSpaceOnUse"/><linearGradient xlink:href="#a" id="x" x1="34.111" x2="35.011" y1="40.838" y2="40.838" gradientTransform="translate(-68.71 -33.35)" gradientUnits="userSpaceOnUse"/><linearGradient xlink:href="#a" id="v" x1="34.111" x2="35.011" y1="38.838" y2="38.838" gradientTransform="translate(-68.71 -33.35)" gradientUnits="userSpaceOnUse"/><linearGradient xlink:href="#b" id="r" x1="20.029" x2="22.029" y1="34.669" y2="34.669" gradientTransform="translate(8.295 -39.156)" gradientUnits="userSpaceOnUse"/><linearGradient xlink:href="#b" id="p" x1="16.075" x2="19.075" y1="26.532" y2="26.532" gradientTransform="matrix(1 0 0 .76775 2.628 4.589)" gradientUnits="userSpaceOnUse"/><linearGradient xlink:href="#b" id="t" x1="12.731" x2="15.131" y1="25.146" y2="25.146" gradientTransform="matrix(1.6948 0 0 2.68437 -11.823 -49.461)" gradientUnits="userSpaceOnUse"/><linearGradient xlink:href="#a" id="y" x1="3.2" x2="4.7" y1=".55" y2=".55" gradientUnits="userSpaceOnUse"/><linearGradient xlink:href="#a" id="z" x1="7.611" x2="9.611" y1="15.748" y2="15.748" gradientUnits="userSpaceOnUse"/><linearGradient xlink:href="#a" id="A" x1="7.611" x2="9.611" y1="15.748" y2="15.748" gradientTransform="translate(0 2.292)" gradientUnits="userSpaceOnUse"/><linearGradient xlink:href="#a" id="B" x1="7.611" x2="9.611" y1="15.748" y2="15.748" gradientTransform="translate(0 4.584)" gradientUnits="userSpaceOnUse"/><linearGradient xlink:href="#a" id="C" x1="7.611" x2="9.611" y1="15.748" y2="15.748" gradientTransform="matrix(1 0 0 2.53333 6.354 -21.855)" gradientUnits="userSpaceOnUse"/><linearGradient xlink:href="#b" id="q" x1="16.075" x2="19.075" y1="26.532" y2="26.532" gradientTransform="matrix(1 0 0 .76775 2.628 8.49)" gradientUnits="userSpaceOnUse"/><linearGradient xlink:href="#b" id="s" x1="20.029" x2="22.029" y1="34.669" y2="34.669" gradientTransform="translate(-29.247 -64.64)" gradientUnits="userSpaceOnUse"/><linearGradient xlink:href="#a" id="h" x1="134.459" x2="135.059" y1="62.628" y2="62.628" gradientTransform="translate(.019 .019)" gradientUnits="userSpaceOnUse"/><linearGradient xlink:href="#a" id="i" x1="134.459" x2="135.059" y1="62.628" y2="62.628" gradientTransform="translate(2.832 .019)" gradientUnits="userSpaceOnUse"/><linearGradient xlink:href="#a" id="j" x1="135.359" x2="135.709" y1="62.647" y2="62.647" gradientTransform="translate(-.01)" gradientUnits="userSpaceOnUse"/><linearGradient xlink:href="#a" id="k" x1="135.359" x2="135.709" y1="62.647" y2="62.647" gradientTransform="translate(.65)" gradientUnits="userSpaceOnUse"/><linearGradient xlink:href="#a" id="l" x1="135.359" x2="135.709" y1="62.647" y2="62.647" gradientTransform="translate(1.31)" gradientUnits="userSpaceOnUse"/><linearGradient xlink:href="#c" id="m" x1="56.006" x2="77.502" y1="206.137" y2="206.137" gradientTransform="matrix(.34847 0 0 .34847 112.85 -6.39)" gradientUnits="userSpaceOnUse"/><linearGradient xlink:href="#c" id="D" x1="173.967" x2="190.49" y1="43.241" y2="43.241" gradientTransform="translate(-129.496 -24.455)" gradientUnits="userSpaceOnUse"/></defs><g transform="translate(0 6.394)"><rect width="25.4" height="38.91" rx=".6" ry=".6" style="fill:#212121;fill-opacity:1;stroke-width:1.2;stroke-linecap:round;paint-order:stroke fill markers"/><path d="M29.198-12.55h1.747v.974h-1.747z" style="fill:#dbddda;stroke-width:.264583" transform="rotate(180 17.637 1.692)"/><path d="M29.416-12.55h1.31v.974h-1.31z" style="fill:#958863;stroke-width:.264583" transform="rotate(180 17.637 1.692)"/><path d="M29.198-12.55h1.747v.974h-1.747z" style="fill:#dbddda;stroke-width:.264583" transform="rotate(180 17.637 2.462)"/><path d="M29.416-12.55h1.31v.974h-1.31z" style="fill:#958863;stroke-width:.264583" transform="rotate(180 17.637 2.462)"/><path d="M29.198-12.55h1.747v.974h-1.747z" style="fill:#dbddda;stroke-width:.264583" transform="rotate(180 17.637 4.236)"/><path d="M29.416-12.55h1.31v.974h-1.31z" style="fill:#958863;stroke-width:.264583" transform="rotate(180 17.637 4.236)"/><path d="M29.198-12.55h1.747v.974h-1.747z" style="fill:#dbddda;stroke-width:.264583" transform="rotate(180 17.637 5.713)"/><path d="M29.416-12.55h1.31v.974h-1.31z" style="fill:#958863;stroke-width:.264583" transform="rotate(180 17.637 5.713)"/><path d="M25.786-11.788h1.747v.974h-1.747z" style="fill:#dbddda;stroke-width:.264583" transform="rotate(90)"/><path d="M26.004-11.788h1.31v.974h-1.31z" style="fill:#958863;stroke-width:.264583" transform="rotate(90)"/><path d="M22.777-11.788h1.747v.974h-1.747z" style="fill:#dbddda;stroke-width:.264583" transform="rotate(90)"/><path d="M22.996-11.788h1.31v.974h-1.31z" style="fill:#958863;stroke-width:.264583" transform="rotate(90)"/><path d="M.97 0h.6c.388 0 .7.312.7.7s-.312.7-.7.7h-.6a.7.7 0 0 1-.7-.7c0-.388.312-.7.7-.7m22.86 0h.6c.388 0 .7.312.7.7s-.312.7-.7.7h-.6a.7.7 0 0 1-.7-.7c0-.388.312-.7.7-.7M.97 2.54h.6c.388 0 .7.312.7.7s-.312.7-.7.7h-.6a.7.7 0 0 1-.7-.7c0-.388.312-.7.7-.7m22.86 0h.6c.388 0 .7.312.7.7s-.312.7-.7.7h-.6a.7.7 0 0 1-.7-.7c0-.388.312-.7.7-.7M.97 5.08h.6c.388 0 .7.312.7.7s-.312.7-.7.7h-.6a.7.7 0 0 1-.7-.7c0-.388.312-.7.7-.7m22.86 0h.6c.388 0 .7.312.7.7s-.312.7-.7.7h-.6a.7.7 0 0 1-.7-.7c0-.388.312-.7.7-.7M.97 7.62h.6c.388 0 .7.312.7.7s-.312.7-.7.7h-.6a.7.7 0 0 1-.7-.7c0-.388.312-.7.7-.7m22.86 0h.6c.388 0 .7.312.7.7s-.312.7-.7.7h-.6a.7.7 0 0 1-.7-.7c0-.388.312-.7.7-.7M.97 10.16h.6c.388 0 .7.312.7.7s-.312.7-.7.7h-.6a.7.7 0 0 1-.7-.7c0-.388.312-.7.7-.7m22.86 0h.6c.388 0 .7.312.7.7s-.312.7-.7.7h-.6a.7.7 0 0 1-.7-.7c0-.388.312-.7.7-.7M.97 12.7h.6c.388 0 .7.312.7.7s-.312.7-.7.7h-.6a.7.7 0 0 1-.7-.7c0-.388.312-.7.7-.7m22.86 0h.6c.388 0 .7.312.7.7s-.312.7-.7.7h-.6a.7.7 0 0 1-.7-.7c0-.388.312-.7.7-.7M.97 15.24h.6c.388 0 .7.312.7.7s-.312.7-.7.7h-.6a.7.7 0 0 1-.7-.7c0-.388.312-.7.7-.7m22.86 0h.6c.388 0 .7.312.7.7s-.312.7-.7.7h-.6a.7.7 0 0 1-.7-.7c0-.388.312-.7.7-.7M.97 17.78h.6c.388 0 .7.312.7.7s-.312.7-.7.7h-.6a.7.7 0 0 1-.7-.7c0-.388.312-.7.7-.7m22.86 0h.6c.388 0 .7.312.7.7s-.312.7-.7.7h-.6a.7.7 0 0 1-.7-.7c0-.388.312-.7.7-.7M.97 20.32h.6c.388 0 .7.312.7.7s-.312.7-.7.7h-.6a.7.7 0 0 1-.7-.7c0-.388.312-.7.7-.7m22.86 0h.6c.388 0 .7.312.7.7s-.312.7-.7.7h-.6a.7.7 0 0 1-.7-.7c0-.388.312-.7.7-.7M.97 22.86h.6c.388 0 .7.312.7.7s-.312.7-.7.7h-.6a.7.7 0 0 1-.7-.7c0-.388.312-.7.7-.7m22.86 0h.6c.388 0 .7.312.7.7s-.312.7-.7.7h-.6a.7.7 0 0 1-.7-.7c0-.388.312-.7.7-.7M.97 25.4h.6c.388 0 .7.312.7.7s-.312.7-.7.7h-.6a.7.7 0 0 1-.7-.7c0-.388.312-.7.7-.7m22.86 0h.6c.388 0 .7.312.7.7s-.312.7-.7.7h-.6a.7.7 0 0 1-.7-.7c0-.388.312-.7.7-.7M.97 27.94h.6c.388 0 .7.312.7.7s-.312.7-.7.7h-.6a.7.7 0 0 1-.7-.7c0-.388.312-.7.7-.7m22.86 0h.6c.388 0 .7.312.7.7s-.312.7-.7.7h-.6a.7.7 0 0 1-.7-.7c0-.388.312-.7.7-.7M.97 30.48h.6c.388 0 .7.312.7.7s-.312.7-.7.7h-.6a.7.7 0 0 1-.7-.7c0-.388.312-.7.7-.7m22.86 0h.6c.388 0 .7.312.7.7s-.312.7-.7.7h-.6a.7.7 0 0 1-.7-.7c0-.388.312-.7.7-.7M.97 33.02h.6c.388 0 .7.312.7.7s-.312.7-.7.7h-.6a.7.7 0 0 1-.7-.7c0-.388.312-.7.7-.7m22.86 0h.6c.388 0 .7.312.7.7s-.312.7-.7.7h-.6a.7.7 0 0 1-.7-.7c0-.388.312-.7.7-.7M.97 35.56h.6c.388 0 .7.312.7.7s-.312.7-.7.7h-.6a.7.7 0 0 1-.7-.7c0-.388.312-.7.7-.7m22.86 0h.6c.388 0 .7.312.7.7s-.312.7-.7.7h-.6a.7.7 0 0 1-.7-.7c0-.388.312-.7.7-.7" style="opacity:1;fill:#d6b142;fill-opacity:1;stroke-width:1.2;stroke-linecap:round;paint-order:stroke fill markers" transform="translate(0 1)"/><path d="M12.886 32.173h.4v1h-.4zm.5 0h.4v1h-.4zm.5 0h.4v1h-.4zm.5 0h.4v1h-.4zm.5 0h.4v1h-.4zm.5 0h.4v1h-.4zm.5 0h.4v1h-.4zm-4.113 4.541v-.4h1v.4zm0-.5v-.4h1v.4zm0-.5v-.4h1v.4zm0-.5v-.4h1v.4zm0-.5v-.4h1v.4zm0-.5v-.4h1v.4zm0-.5v-.4h1v.4zm4.541 4.113h-.4v-1h.4zm-.5 0h-.4v-1h.4zm-.5 0h-.4v-1h.4zm-.5 0h-.4v-1h.4zm-.5 0h-.4v-1h.4zm-.5 0h-.4v-1h.4zm-.5 0h-.4v-1h.4zm4.113-4.541v.4h-1v-.4zm0 .5v.4h-1v-.4zm0 .5v.4h-1v-.4zm0 .5v.4h-1v-.4zm0 .5v.4h-1v-.4zm0 .5v.4h-1v-.4zm0 .5v.4h-1v-.4z" style="opacity:1;fill:#d6b142;fill-opacity:1;stroke-width:1.2;stroke-linecap:round;paint-order:stroke fill markers" transform="translate(-4.073 -9.573)"/><path d="M12.063 32.53h5v5h-5z" style="opacity:1;fill:#000;fill-opacity:1;stroke-width:1.2;stroke-linecap:round;paint-order:stroke fill markers" transform="translate(-4.088 -9.6)"/><g style="display:inline" transform="translate(-123.494 -29.476)"><path d="M132.583 61.335c-.277 0-.5.222-.5.5v.75a.499.499 0 1 0 1 0v-.75c0-.278-.223-.5-.5-.5m0 .2c.166 0 .3.133.3.3v.75c0 .166-.134.3-.3.3a.3.3 0 0 1-.3-.3v-.75a.3.3 0 0 1 .3-.3" style="opacity:1;fill:url(#d);stroke-width:1.2;stroke-linecap:round;paint-order:stroke fill markers"/><path d="M139.77 61.335c-.277 0-.5.222-.5.5v.75a.499.499 0 1 0 1 0v-.75c0-.278-.223-.5-.5-.5m0 .2c.167 0 .3.133.3.3v.75c0 .166-.133.3-.3.3a.3.3 0 0 1-.3-.3v-.75a.3.3 0 0 1 .3-.3" style="fill:url(#e);stroke-width:1.2;stroke-linecap:round;paint-order:stroke fill markers"/><path d="M139.77 65.03c-.277 0-.5.223-.5.5v.8a.499.499 0 1 0 1 0v-.8c0-.277-.223-.5-.5-.5m0 .2c.167 0 .3.133.3.3v.8c0 .166-.133.3-.3.3a.3.3 0 0 1-.3-.3v-.8a.3.3 0 0 1 .3-.3" style="fill:url(#f);stroke-width:1.2;stroke-linecap:round;paint-order:stroke fill markers"/><path d="M132.583 65.03c-.277 0-.5.223-.5.5v.8a.499.499 0 1 0 1 0v-.8c0-.277-.223-.5-.5-.5m0 .2c.166 0 .3.133.3.3v.8c0 .166-.134.3-.3.3a.3.3 0 0 1-.3-.3v-.8a.3.3 0 0 1 .3-.3" style="fill:url(#g);stroke-width:1.2;stroke-linecap:round;paint-order:stroke fill markers"/><rect width=".6" height="1.8" x="134.478" y="61.747" rx=".3" ry=".3" style="fill:url(#h);stroke-width:1.2;stroke-linecap:round;paint-order:stroke fill markers"/><rect width=".6" height="1.8" x="137.291" y="61.747" rx=".3" ry=".3" style="fill:url(#i);stroke-width:1.2;stroke-linecap:round;paint-order:stroke fill markers"/><path d="M135.35 61.747h.35v1.8h-.35z" style="fill:url(#j);stroke-width:1.2;stroke-linecap:round;paint-order:stroke fill markers"/><path d="M136.01 61.747h.35v1.8h-.35z" style="fill:url(#k);stroke-width:1.2;stroke-linecap:round;paint-order:stroke fill markers"/><path d="M136.669 61.747h.35v1.8h-.35z" style="fill:url(#l);stroke-width:1.2;stroke-linecap:round;paint-order:stroke fill markers"/><path d="M132.574 61.953v6.116l-.209.16v.174h.608l.305.527h5.665l.305-.527h.608v-.174l-.21-.16v-6.116h-.821l-.287.286v1.457h-.97v-.66h-2.914v.66h-.972v-1.457l-.285-.286z" style="fill:url(#m);stroke-width:1.2;stroke-linecap:round;paint-order:stroke fill markers"/><rect width=".7" height="1.5" x="133.239" y="66.254" rx=".35" ry=".35" style="fill:#2d2d2d;stroke-width:1.2;stroke-linecap:round;paint-order:stroke fill markers"/><rect width=".7" height="1.5" x="138.223" y="66.244" rx=".35" ry=".35" style="fill:#2d2d2d;stroke-width:1.2;stroke-linecap:round;paint-order:stroke fill markers"/></g><path d="M60.309 43.672v1.2h-.75v-1.2zm0 4.2v1.2h-.75v-1.2zm-2.15-4.2v1.2h-.75v-1.2zm0 4.2v1.2h-.75v-1.2z" style="opacity:1;fill:url(#n);fill-opacity:1;stroke-width:1.2;stroke-linecap:round;paint-order:stroke fill markers" transform="translate(-53.872 -10.939)"/><path d="M60.22 48.466h-2.723a.21.21 0 0 1-.21-.21v-3.768a.21.21 0 0 1 .21-.21h2.724a.21.21 0 0 1 .21.21v3.77a.21.21 0 0 1-.21.209" style="fill:#b7b7b7;fill-opacity:1;stroke-width:.264583" transform="translate(-53.872 -10.939)"/><path d="M58.859 48.204a1.31 1.31 0 0 1-1.31-1.31v-1.047a1.31 1.31 0 0 1 2.62 0v1.048a1.31 1.31 0 0 1-1.31 1.31M60.43 48.258v-.394a.21.21 0 0 0-.358-.147l-.393.393a.21.21 0 0 0 .148.357h.394a.21.21 0 0 0 .21-.209M57.497 48.466h.393a.21.21 0 0 0 .148-.358l-.394-.393a.21.21 0 0 0-.357.148v.395a.21.21 0 0 0 .21.209" style="fill:#363a44;fill-opacity:1;stroke-width:.264583" transform="translate(-53.872 -10.939)"/><path d="M57.288 44.497v.393a.21.21 0 0 0 .357.148l.393-.393a.21.21 0 0 0-.148-.358h-.394a.21.21 0 0 0-.209.21M60.22 44.287h-.393a.21.21 0 0 0-.147.358l.393.393a.21.21 0 0 0 .358-.148v-.393a.21.21 0 0 0-.21-.21" style="fill:#363a44;fill-opacity:1;stroke-width:.264583" transform="translate(-53.872 -10.939)"/><path d="M16.161 39.772h1.2v.75h-1.2zm4.2 0h1.2v.75h-1.2Zm-4.2 2.15h1.2v.75h-1.2zm4.2 0h1.2v.75h-1.2Z" style="fill:url(#o);fill-opacity:1;stroke-width:1.2;stroke-linecap:round;paint-order:stroke fill markers" transform="rotate(90 22.448 39.02)"/><path d="M63.666 50.227v2.724a.21.21 0 0 1-.21.209h-3.769a.21.21 0 0 1-.21-.21v-2.723a.21.21 0 0 1 .21-.21h3.77a.21.21 0 0 1 .21.21" style="fill:#b7b7b7;fill-opacity:1;stroke-width:.264583" transform="rotate(90 48.992 22.844)"/><path d="M63.404 51.589a1.31 1.31 0 0 1-1.31 1.31h-1.047a1.31 1.31 0 0 1 0-2.62h1.047a1.31 1.31 0 0 1 1.31 1.31M63.457 50.018h-.393a.21.21 0 0 0-.148.357l.393.393a.21.21 0 0 0 .358-.147v-.394a.21.21 0 0 0-.21-.21M63.666 52.95v-.392a.21.21 0 0 0-.358-.148l-.393.393a.21.21 0 0 0 .147.358h.395a.21.21 0 0 0 .21-.21" style="fill:#363a44;fill-opacity:1;stroke-width:.264583" transform="rotate(90 48.992 22.844)"/><path d="M59.697 53.16h.393a.21.21 0 0 0 .147-.358l-.393-.392a.21.21 0 0 0-.357.148v.394a.21.21 0 0 0 .21.209M59.487 50.227v.393a.21.21 0 0 0 .357.148l.393-.393a.21.21 0 0 0-.147-.358h-.394a.21.21 0 0 0-.21.21" style="fill:#363a44;fill-opacity:1;stroke-width:.264583" transform="rotate(90 48.992 22.844)"/><path d="M58.675-129.627H59.8v.75h-1.125z" style="display:inline;fill:#ecf6fd;stroke-width:.264583" transform="rotate(90 -47.009 -76.485)"/><path d="M129.42 59.065a.188.188 0 1 1-.188-.187.187.187 0 0 1 .188.187" style="display:inline;fill:#3c3;stroke-width:.264583" transform="translate(-123.494 -29.476)"/><path d="M18.703 24.192h3v1.535h-3z" style="opacity:1;fill:url(#p);fill-opacity:1;stroke-width:1.2;stroke-linecap:round;paint-order:stroke fill markers"/><path d="M18.703 28.093h3v1.535h-3z" style="fill:url(#q);fill-opacity:1;stroke-width:1.2;stroke-linecap:round;paint-order:stroke fill markers"/><path d="M28.324-4.987h2v1h-2z" style="fill:url(#r);fill-opacity:1;stroke-width:1.2;stroke-linecap:round;paint-order:stroke fill markers" transform="rotate(90)"/><path d="M-9.218-30.471h2v1h-2z" style="fill:url(#s);fill-opacity:1;stroke-width:1.2;stroke-linecap:round;paint-order:stroke fill markers" transform="scale(-1)"/><path d="M9.754 14.819h4.068v6.442H9.754z" style="fill:url(#t);fill-opacity:1;stroke-width:1.2;stroke-linecap:round;paint-order:stroke fill markers"/><g transform="rotate(90 22.417 32.428)"><path d="M-37.099 5.087h.9v.8h-.9z" style="opacity:1;fill:url(#u);stroke-width:1.2;stroke-linecap:round;paint-order:stroke fill markers" transform="rotate(-90)"/><path d="M-34.599 5.087h.9v.8h-.9z" style="fill:url(#v);stroke-width:1.2;stroke-linecap:round;paint-order:stroke fill markers" transform="rotate(-90)"/><path d="M-37.099 7.087h.9v.8h-.9z" style="fill:url(#w);stroke-width:1.2;stroke-linecap:round;paint-order:stroke fill markers" transform="rotate(-90)"/><path d="M-34.599 7.087h.9v.8h-.9z" style="fill:url(#x);stroke-width:1.2;stroke-linecap:round;paint-order:stroke fill markers" transform="rotate(-90)"/><path d="M-36.899 4.987h3v3h-3z" style="opacity:1;fill:#fff;fill-opacity:1;stroke-width:1.20001;stroke-linecap:round;paint-order:stroke fill markers" transform="rotate(-90)"/><circle cx="6.487" cy="35.399" r="1.052" style="opacity:1;fill:#7c7c7c;fill-opacity:1;stroke-width:1.2;stroke-linecap:round;paint-order:stroke fill markers"/><path d="M6.487 34.346q-.177.002-.343.06l.006.047v.742l.157.156h.414l.266-.206h.522a1.05 1.05 0 0 0-1.022-.799m-.457.107c-.3.145-.513.424-.575.752h.575zm.99.898-.215.157v.43l.14.149.009.253a1.05 1.05 0 0 0 .585-.994zm-1.582 0-.003.048c0 .581.471 1.052 1.052 1.052q.102 0 .203-.022v-.908h-.423l-.17-.17Z" style="fill:#585858;fill-opacity:1;stroke-width:1.2;stroke-linecap:round;paint-order:stroke fill markers"/></g><path d="M3.2.1h1.5V1H3.2Zm17.5 0h1.5V1h-1.5ZM3.2 1.6h1.5v.9H3.2Zm17.5 0h1.5v.9h-1.5ZM3.2 3.1h1.5V4H3.2Zm17.5 0h1.5V4h-1.5ZM3.2 4.6h1.5v.9H3.2Zm17.5 0h1.5v.9h-1.5ZM3.2 6.1h1.5V7H3.2Zm17.5 0h1.5V7h-1.5ZM3.2 7.6h1.5v.9H3.2Zm17.5 0h1.5v.9h-1.5ZM3.2 9.1h1.5v.9H3.2Zm17.5 0h1.5v.9h-1.5ZM3.2 10.6h1.5v.9H3.2Zm17.5 0h1.5v.9h-1.5ZM3.2 12.1h1.5v.9H3.2Zm17.5 0h1.5v.9h-1.5z" style="fill:url(#y);stroke-width:1.2;stroke-linecap:round;paint-order:stroke fill markers" transform="translate(0 .05)"/><path d="M7.611 14.998h2v1.5h-2z" style="fill:url(#z);stroke-width:1.2;stroke-linecap:round;paint-order:stroke fill markers"/><path d="M7.611 17.29h2v1.5h-2z" style="fill:url(#A);stroke-width:1.2;stroke-linecap:round;paint-order:stroke fill markers"/><path d="M7.611 19.582h2v1.5h-2z" style="fill:url(#B);stroke-width:1.2;stroke-linecap:round;paint-order:stroke fill markers"/><path d="M13.965 16.14h2v3.8h-2z" style="fill:url(#C);stroke-width:1.2;stroke-linecap:round;paint-order:stroke fill markers"/><path d="M13.821 16.498h1.755v3.084h-1.755zM8.254 15.448h1.5v.6h-1.5zM8.254 17.74h1.5v.6h-1.5zM8.254 20.032h1.5v.6h-1.5z" style="fill:#b7b7b7;fill-opacity:1;stroke-width:1.2;stroke-linecap:round;paint-order:stroke fill markers"/></g><g style="display:inline"><path d="M43.732 6.282v6.725a.27.27 0 0 1 .268.268.27.27 0 0 1-.268.268v.964a.27.27 0 0 1 .268.268.27.27 0 0 1-.268.269v.963a.27.27 0 0 1 .268.269.27.27 0 0 1-.268.268v.964a.27.27 0 0 1 .268.268.27.27 0 0 1-.268.268v.964a.27.27 0 0 1 .268.268.27.27 0 0 1-.268.268v.964a.27.27 0 0 1 .268.268.27.27 0 0 1-.268.268v.965a.27.27 0 0 1 .268.268.27.27 0 0 1-.268.268v.964a.27.27 0 0 1 .268.268.27.27 0 0 1-.268.268v.969a.27.27 0 0 1 .268.268.27.27 0 0 1-.268.268v.733h18v-.733a.27.27 0 0 1-.268-.268.27.27 0 0 1 .268-.268v-.969a.27.27 0 0 1-.268-.268.27.27 0 0 1 .268-.268v-.964a.27.27 0 0 1-.268-.268.27.27 0 0 1 .268-.268v-.965a.27.27 0 0 1-.268-.268.27.27 0 0 1 .268-.268v-.964a.27.27 0 0 1-.268-.268.27.27 0 0 1 .268-.268v-.964a.27.27 0 0 1-.268-.268.27.27 0 0 1 .268-.268v-.964a.27.27 0 0 1-.268-.268.27.27 0 0 1 .268-.269v-.963a.27.27 0 0 1-.268-.269.27.27 0 0 1 .268-.268v-.964a.27.27 0 0 1-.268-.268.27.27 0 0 1 .268-.268V6.282Z" style="fill:#2d2d2d;stroke-width:1.2;stroke-linecap:round;paint-order:stroke fill markers" transform="translate(-40.032 -6.282)"/><path d="M58.778 11.846V6.581h-4.707V9.27h-1.887V6.58h-2.913v2.694H47.39V6.58h-2.892v4.295h.492V7.1h1.881l.003 2.693h2.913V7.1h1.884v2.693l2.913-.005V7.1h1.577v4.746h.519V7.1h1.568v4.746z" style="fill:#252525;fill-opacity:1;stroke-width:1.2;stroke-linecap:round;paint-order:stroke fill markers" transform="translate(-40.032 -6.282)"/><path d="M43.732 12.825v.182a.268.268 0 1 1 0 .537v.181h.45v-.9zm18 0h-.45v.9h.45v-.181a.268.268 0 1 1 0-.537zm-18 2.4h.45v-.9h-.45v.182a.268.268 0 1 1 0 .537zm18 0v-.181a.268.268 0 1 1 0-.537v-.182h-.45v.9zm-18 .6v.183a.268.268 0 1 1 0 .536v.182h.45v-.9zm18 0h-.45v.9h.45v-.181a.268.268 0 1 1 0-.536zm-18 2.401h.45v-.9h-.45v.182a.268.268 0 1 1 0 .536zm18 0v-.182a.268.268 0 1 1 0-.536v-.182h-.45v.9zm-18 .6v.182a.268.268 0 1 1 0 .536v.182h.45v-.9zm18 0h-.45v.9h.45v-.182a.268.268 0 1 1 0-.536zm-18 2.4h.45v-.9h-.45v.182a.268.268 0 1 1 0 .537zm18 0v-.181a.268.268 0 1 1 0-.537v-.182h-.45v.9zm-18 .6v.182a.268.268 0 1 1 0 .537v.182h.45v-.9zm18 0h-.45v.9h.45v-.181a.268.268 0 1 1 0-.537zm-18 2.4h.45v-.9h-.45v.183a.268.268 0 1 1 0 .536zm18 0v-.181a.268.268 0 1 1 0-.536v-.182h-.45v.9zm-18 .6v.183a.268.268 0 1 1 0 .536v.182h.45v-.9zm18 0h-.45v.901h.45v-.182a.268.268 0 1 1 0-.536z" style="display:inline;fill:#d6b142;fill-opacity:1;stroke-width:1.2;stroke-linecap:round;paint-order:stroke fill markers" transform="translate(-40.032 -6.282)"/><path d="M44.471 11.846h16.522v13.881H44.471z" style="fill:url(#D);stroke-width:1.2;stroke-linecap:round;paint-order:stroke fill markers" transform="translate(-40.032 -6.282)"/></g></svg>