<svg xmlns="http://www.w3.org/2000/svg" xmlns:xlink="http://www.w3.org/1999/xlink" xml:space="preserve" width="96" height="173.284" viewBox="0 0 25.4 45.848"><defs><linearGradient id="b"><stop offset="0" style="stop-color:#b7b7b7;stop-opacity:1"/></linearGradient><linearGradient id="a"><stop offset="0" style="stop-color:#907520;stop-opacity:1"/></linearGradient><linearGradient xlink:href="#a" id="d" x1="135.493" x2="140.403" y1="68.213" y2="68.213" gradientTransform="translate(-95.494 -33.284)" gradientUnits="userSpaceOnUse"/><linearGradient xlink:href="#a" id="e" x1="135.493" x2="140.403" y1="68.213" y2="68.213" gradientTransform="translate(-88.307 -33.284)" gradientUnits="userSpaceOnUse"/><linearGradient xlink:href="#a" id="f" x1="135.493" x2="140.403" y1="68.213" y2="68.213" gradientTransform="translate(-88.307 -29.589)" gradientUnits="userSpaceOnUse"/><linearGradient xlink:href="#a" id="g" x1="135.493" x2="140.403" y1="68.213" y2="68.213" gradientTransform="translate(-95.494 -29.589)" gradientUnits="userSpaceOnUse"/><linearGradient xlink:href="#b" id="c" x1="56.006" x2="77.502" y1="206.137" y2="206.137" gradientTransform="matrix(.34847 0 0 .34847 20.849 -35.867)" gradientUnits="userSpaceOnUse"/></defs><g style="display:inline" transform="translate(-31.41 6.394)"><path d="M40.574 32.477v6.116l-.21.16v.174h.609l.305.527h5.665l.305-.527h.608v-.174l-.21-.16v-6.116h-.822l-.286.286v1.457h-.971v-.66h-2.914v.66h-.971v-1.457l-.286-.286z" style="display:inline;fill:url(#c);stroke-width:1.2;stroke-linecap:round;paint-order:stroke fill markers"/><path d="M43.732 6.282h18v8.225h-18z" style="display:inline;fill:#2d2d2d;fill-opacity:1;stroke-width:1.2;stroke-linecap:round;paint-order:stroke fill markers" transform="translate(-8.622 -12.676)"/><rect width="25.4" height="38.91" x="31.41" rx=".6" ry=".6" style="fill:#212121;fill-opacity:1;stroke-width:1.2;stroke-linecap:round;paint-order:stroke fill markers"/><path d="M40.5 31.858c-.278 0-.501.223-.501.5v.75a.499.499 0 1 0 1 0v-.75c0-.277-.223-.5-.5-.5m0 .2c.165 0 .299.134.299.3v.75c0 .167-.134.3-.3.3a.3.3 0 0 1-.3-.3v-.75a.3.3 0 0 1 .3-.3" style="display:inline;fill:url(#d);stroke-width:1.2;stroke-linecap:round;paint-order:stroke fill markers"/><path d="M47.687 31.858c-.277 0-.5.223-.5.5v.75a.499.499 0 1 0 1 0v-.75c0-.277-.223-.5-.5-.5m0 .2c.166 0 .3.134.3.3v.75c0 .167-.134.3-.3.3a.3.3 0 0 1-.3-.3v-.75a.3.3 0 0 1 .3-.3" style="display:inline;fill:url(#e);stroke-width:1.2;stroke-linecap:round;paint-order:stroke fill markers"/><path d="M47.687 35.554c-.277 0-.5.222-.5.5v.8a.499.499 0 1 0 1 0v-.8c0-.278-.223-.5-.5-.5m0 .2c.166 0 .3.133.3.3v.8c0 .166-.134.3-.3.3a.3.3 0 0 1-.3-.3v-.8a.3.3 0 0 1 .3-.3" style="display:inline;fill:url(#f);stroke-width:1.2;stroke-linecap:round;paint-order:stroke fill markers"/><path d="M40.5 35.554c-.278 0-.501.222-.501.5v.8a.499.499 0 1 0 1 0v-.8c0-.278-.223-.5-.5-.5m0 .2c.165 0 .299.133.299.3v.8c0 .166-.134.3-.3.3a.3.3 0 0 1-.3-.3v-.8a.3.3 0 0 1 .3-.3" style="display:inline;fill:url(#g);stroke-width:1.2;stroke-linecap:round;paint-order:stroke fill markers"/></g></svg>